# xmcd CD database file
# Copyright (C) 1993-1998 Ti Kan
# 
# Track frame offsets:
#     150
#     13045
#     28480
#     43727
#     61580
#     76372
#     96662
#     108727
#     121487
#     139352
#     154980
#     169340
#     186627
#     198585
# 
# Disc length: 2886 seconds
# 
# Revision: 1
# Processed by: cddbd v1.4b41PL1 Copyright (c) Steve Scherf et al.
# Submitted via: DiscPlay 4.0.4
# 
DISCID=d80b440e
DTITLE=Sid Spencer - Out -n- About, Again
DYEAR=1900
DGENRE=
TTITLE0=Out 'n' About, Again
TTITLE1=Another Night Without You
TTITLE2=Daddy's Shoes
TTITLE3=Fallin' In Love
TTITLE4=Just A Memory
TTITLE5=Will Love Last
TTITLE6=It Ain't Over
TTITLE7=All I Can Handle
TTITLE8=If You Got Love
TTITLE9=Angel In Hell
TTITLE10=Burning Down My Heart
TTITLE11=Four In The Morning
TTITLE12=You Gotta Swim
TTITLE13=A Bible And A Bus Ticket Home
EXTD=
EXTT0=
EXTT1=
EXTT2=
EXTT3=
EXTT4=
EXTT5=
EXTT6=
EXTT7=
EXTT8=
EXTT9=
EXTT10=
EXTT11=
EXTT12=
EXTT13=
PLAYORDER=
